<?xml version="1.0" encoding="utf-8"?>
<!-- Generator: Adobe Illustrator 22.0.0, SVG Export Plug-In . SVG Version: 6.00 Build 0)  -->
<svg version="1.1" id="Your_design" xmlns="http://www.w3.org/2000/svg" xmlns:xlink="http://www.w3.org/1999/xlink" x="0px"
	 y="0px" viewBox="0 0 400 400" style="enable-background:new 0 0 400 400;" xml:space="preserve">
<style type="text/css">
	.st0{fill:#FFFFFF;}
	.st1{fill:#F14A3B;}
	.st2{fill:#FCB70F;}
	.st3{fill:#0A0839;}
	.st4{fill:#44DBA4;}
</style>
<circle class="st0" cx="200" cy="200" r="200"/>
<g>
	<path d="M215.3,52.3c2.6,0,5.3,0,7.9,0.3c0,0,0,0,0.3,0c1.7,0,3.3-1.3,3.3-3c0-2-1.3-3.3-3-3.6c-3-0.3-6-0.3-8.6-0.3
		c-2,0-3.3,1.3-3.3,3.3C212,50.7,213.3,52.3,215.3,52.3z"/>
	<path d="M68.7,270.7c-0.7-1.7-2.6-2.3-4.3-1.7c-1.7,0.7-2.3,2.6-1.7,4.3c2.3,5.3,4.6,10.3,7.6,15.2c0.7,1,1.7,1.7,3,1.7
		c0.7,0,1,0,1.7-0.3c1.7-1,2.3-3,1.3-4.6C73,280.6,70.7,275.7,68.7,270.7z"/>
	<path d="M84.6,299.2c-1-1.7-3-2-4.6-0.7c-1.7,1-2,3-0.7,4.6c3.3,4.6,6.6,9.3,10.6,13.6c0.7,0.7,1.7,1,2.6,1c0.7,0,1.7-0.3,2.3-0.7
		c1.3-1.3,1.7-3.3,0.3-4.6C90.8,308.1,87.5,303.8,84.6,299.2z"/>
	<path d="M63.1,255.1c-1.7-5.3-3-10.6-4-15.9c-0.3-1.7-2-3-4-2.6c-1.7,0.3-3,2-2.6,4c1,5.6,2.3,11.2,4,16.5c0.3,1.3,1.7,2.3,3.3,2.3
		c0.3,0,0.7,0,1,0C62.4,258.8,63.4,256.8,63.1,255.1z"/>
	<path d="M60.4,160.5c0.3,0,0.7,0.3,1,0.3c1.3,0,2.6-1,3-2.3c1.7-5.3,4-10.3,6-15.2c0.7-1.7,0-3.6-1.7-4.3c-1.7-0.7-3.6,0-4.3,1.7
		c-2.3,5.3-4.6,10.6-6.3,15.9C57.8,157.9,58.8,159.9,60.4,160.5z"/>
	<path d="M53.8,193.3h0.3c1.7,0,3-1.3,3.3-3c0.7-5.3,1.7-10.9,3-16.2c0.3-1.7-0.7-3.6-2.6-4c-1.7-0.3-3.6,0.7-4,2.6
		c-1.3,5.6-2.3,11.2-3,16.9C50.5,191.3,51.8,192.9,53.8,193.3z"/>
	<path d="M53.8,226.7c2,0,3.3-1.7,3-3.6c-0.3-4.3-0.7-8.9-0.7-13.6c0-1,0-2,0-3c0-2-1.3-3.3-3.3-3.3c-1.7,0-3.3,1.3-3.3,3.3
		c0,1,0,2,0,3c0,4.6,0.3,9.3,0.7,14.2C50.1,225.4,51.8,226.7,53.8,226.7C53.5,226.7,53.8,226.7,53.8,226.7z"/>
	<path d="M86.9,110.6c-1.3-1-3.6-0.7-4.6,0.7c-3.3,4.6-6.6,9.3-9.6,14.2c-1,1.7-0.3,3.6,1,4.6c0.7,0.3,1,0.3,1.7,0.3
		c1,0,2.3-0.7,3-1.7c2.6-4.6,6-9.3,9.3-13.6C88.5,113.5,88.5,111.5,86.9,110.6z"/>
	<path d="M95.5,103.6c1,0,1.7-0.3,2.3-1c3.6-4,7.6-7.9,11.9-11.6c1.3-1.3,1.7-3.3,0.3-4.6s-3.3-1.7-4.6-0.3
		c-4.3,3.6-8.3,7.6-12.2,11.9c-1.3,1.3-1.3,3.3,0.3,4.6C94.2,103.3,94.8,103.6,95.5,103.6z"/>
	<path d="M150.1,65.2c0.3,0,1,0,1.3-0.3c5-2.3,10.3-4,15.2-5.6c1.7-0.7,2.6-2.3,2.3-4.3c-0.7-1.7-2.3-2.6-4.3-2.3
		c-5.3,1.7-10.9,3.6-15.9,6c-1.7,0.7-2.3,2.6-1.7,4.3C147.4,64.6,148.8,65.2,150.1,65.2z"/>
	<path d="M181.8,55.3c0.3,0,0.3,0,0.7,0c5.3-1,10.9-2,16.2-2.3c2-0.3,3.3-1.7,3-3.6c-0.3-2-1.7-3.3-3.6-3
		c-5.6,0.7-11.2,1.3-16.9,2.3c-1.7,0.3-3,2-2.6,4C178.9,54.3,180.2,55.3,181.8,55.3z"/>
	<path d="M121,81.4c0.7,0,1.3-0.3,2-0.7c4.3-3.3,9.3-6,13.9-8.6c1.7-1,2.3-3,1.3-4.6c-1-1.7-3-2.3-4.6-1.3c-5,2.6-9.9,6-14.6,9.3
		c-1.7,1-2,3-0.7,4.6C118.6,81.1,119.6,81.4,121,81.4z"/>
	<path d="M106.1,324c-1.3-1.3-3.3-1.3-4.6,0c-1.3,1.3-1.3,3.3,0,4.6c2,2,4.3,3.6,6.3,5.6c0.7,0.7,1.3,0.7,2,0.7c1,0,2-0.3,2.6-1.3
		c1.3-1.3,1-3.6-0.3-4.6C110,327.9,108.1,326,106.1,324z"/>
	<path d="M238.8,60.6l3.6-6l11.2,3L247,73.5l4,1.3l9.9-15.9l9.3,2.3c0,0,0.3-0.3,5.3-0.7c4.6,0,1-2.3,1-2.3l-5.6-2.6l-8.6-2l-3-18.2
		l-4-0.3l-0.7,17.2l-11.2-1.7l-1.3-7.3l-3.3-0.3l0.3,8.6l-3.6,7.6L238.8,60.6z"/>
	<g>
		<path d="M186.1,95.4c0.8,0,1.3,0.2,0.5,0C186.5,95.3,186.3,95.3,186.1,95.4z"/>
		<polygon points="188.8,137.5 188.8,137.5 188.8,137.5 		"/>
		<g>
			<path class="st1" d="M92,250.7l0.1-5.8l-0.1-2.4l-0.6-1.8l-0.7-0.7l-0.8-0.1l-0.9,0.7l-0.2,1.9l-1.9,0.2l-3.2-3l-2.9-2l-1.2-1.5
				l-0.2-2l-0.6-1c2,8.6,4.8,16.8,8.3,24.6l0.6-2.7L92,250.7z"/>
			<path class="st1" d="M81.2,213.7l-5.2,0.9c0.2,2.9,0.5,5.8,1,8.6l4.2-7.4C81.2,215.8,81.2,213.7,81.2,213.7z"/>
			<path class="st1" d="M144.2,306l4.5-2.9l5.5-2.1l1-4.4l2-6.6l0-4.5l-0.8-3.8l6.2-8.5l-1.1-7l-2.1,0l-5.1-3.1l-3.6-0.4l-4.7-1.9
				l-1.7-1l-1.5-1.8l-1.4,0.3l-0.6,1.9l-1.4,1.2l-2,0.1v-0.7v-0.6l1,0l1.1-0.4l0.5-1.1l-0.1-0.8l-0.2-0.7l-1.5-0.1l-0.8,0.5
				l-2.2,1.2v0.9l-1,0l-0.1-0.8l1-1.5l1-1.5l0.7-2.3l-1.1-3.2L134,248l-2.1-2.2l-5.9-1.3l-2.5-2.8l-1.8-1.4l-2.3-2.2l-1.4-2.3
				l-0.7-0.3l-1.5,0.2l-1.9,0.8l-3.1-0.6l-4-3.3l-1.4-0.2l-1.1,2.4v3.3l-1.5,0.5l-1-0.9l0.1-1.7l0.6-0.7l0.3-1.3l1.1-0.8l0.1-1.1
				l-0.9-0.3l-1.8,1.3l-2.6,1.5l-2.4,0.7l-1.7,4.6h-1.5l-0.1-0.6l-1-1.2l-1.2-0.5l-1.4,0.8l-1.7,0.7l-1.8-1.1l-0.9-1.7l-1.5-0.7
				v-3.4l1-7.2l-7.4-0.2c0.5,2.8,1,5.5,1.6,8.3l0.6,1l0.2,2l1.2,1.5l2.9,2l3.2,3l1.9-0.2l0.2-1.9l0.9-0.7l0.8,0.1l0.7,0.7l0.6,1.8
				l0.1,2.4l-0.1,5.8l-4.2,4.3l-0.6,2.7c11.5,25.4,30.7,46.4,54.7,60.2l1.6-4.9L144.2,306z"/>
			<polygon class="st2" points="146.1,159 146.9,156.6 146.7,155.7 145.4,156.1 139.6,160.3 139.6,161.1 140.3,163.2 142.9,163.2 
				144.6,164.1 146.8,165.4 147.3,162.9 146.9,160.1 			"/>
			<polygon class="st2" points="165.7,99.2 170,96.5 169.9,95.5 168.6,95.4 164.8,95.7 161.5,95.7 158.4,95.7 156.4,94.4 
				152.3,94.4 148.9,95.5 145.6,96.2 145.6,97.3 147.7,97.7 151.9,97.3 155,97.8 154.9,98.7 151.4,99.8 147.4,101.5 145,103.6 
				145.2,104.8 146.5,106.3 149.8,106 151.9,105.8 156.7,101 161.4,99.4 			"/>
			<polygon class="st2" points="126.7,128.8 126.7,126.9 125.8,126.3 124.1,126.3 120.8,128.4 120.8,129.3 122,130.5 123,130.7 
				123.3,129.9 124.2,129.4 125.6,129.7 126.4,131.1 127.5,130.9 127.4,129.7 			"/>
			<path d="M119.4,107.8l1.6-1.8l-0.7-1.7c-1.5,1.4-3,2.7-4.5,4.2l1.2,0L119.4,107.8z"/>
			<path d="M108.6,118.4l1.7,0.4l1.2-1.1l1.8-0.3l0.5-0.4l-0.4-1l-0.5-0.8l1.3-1.2v-1.3l-2.2-0.7c-1.8,1.8-3.5,3.7-5.1,5.6h0.2
				L108.6,118.4z"/>
			<polygon points="118.1,111.5 118.1,113.4 119.5,114.8 122,114.9 123.6,113.3 124.4,111.7 124.8,110.3 121.4,109.6 			"/>
			<polygon class="st2" points="131.8,110.3 128.9,110.4 127.2,111 125.4,112.4 125.6,114 126.9,114 129.1,113 131.8,111.6 			"/>
			<polygon points="127,108.9 129.2,107.4 129.3,106.2 128.2,105.3 126.9,105 125.8,105.4 125.5,106.3 125.9,109 			"/>
			<polygon class="st2" points="137.7,109.7 145.3,109.7 144.6,108 137.2,107.9 135,105.1 132.4,105.6 133.5,108.6 			"/>
			<polygon class="st2" points="148.7,121.3 149.8,120.2 150.2,118.8 148.5,116.8 145.4,115.1 144,113.4 140.3,114.1 139.4,112.9 
				139.7,112.1 139.5,111.3 137.9,111.2 135,111.1 130.2,114.4 130.6,116.8 133.7,117.7 137.5,118.3 142.2,118.9 143,120.2 
				141.5,121.6 136.7,126.4 134.2,126.4 133.1,126.4 130.9,128.6 131.7,129.5 136.2,129.5 140,133.2 141.7,134.5 142.6,134.2 
				145.2,129.3 145.4,126.6 145.9,126.4 146.9,128.3 148.3,129.1 153.1,126.3 153.4,124.9 148.7,122 			"/>
			<polygon class="st1" points="101.5,216.9 101.5,215.8 94,210.6 87.4,210.3 85.5,211.4 85.5,212.1 92.4,212.2 93.7,214 
				95.4,215.3 96.4,216 95.9,217.3 101.2,217.3 			"/>
			<polygon class="st1" points="93.7,220.5 94.6,221.1 96.4,221.1 96.6,219.5 93.8,219.6 			"/>
			<polygon class="st1" points="106.3,217.2 103.8,217.7 102.6,217.8 102.9,219.4 100.2,219.5 100,219.8 100.1,220.5 102.5,220.5 
				104.5,220.9 105.1,221.2 106.9,220.3 110.2,219.9 110.2,219 108.4,218.8 			"/>
			<polygon class="st1" points="112.8,220 112,220.7 112.8,221.3 115.2,221 114.5,219.9 			"/>
			<polygon class="st1" points="119.1,223 119.2,223.4 120,225.4 121.3,225 121.4,223.9 120.7,223.3 			"/>
			<polygon class="st1" points="119.8,226.1 119.8,227.8 120.1,229.1 121.2,229.2 121.1,226.1 			"/>
			<polygon class="st2" points="200.5,123.4 201.1,121.7 199.7,121.5 197.5,120.6 197.5,119.4 198.3,119.4 199.2,120.1 201,119.9 
				201,119 199.3,117.6 199.2,116.1 200.7,115.4 201.4,116.1 202.9,116.1 204.4,114.6 206.3,111.9 206.3,111.1 203.5,109.5 
				203.4,106.9 206.7,104.4 210.2,102.4 210.7,101.3 214.3,99.9 215.7,99.6 215.6,98.6 213.4,98.3 210.1,98.1 208.1,99.3 
				206.1,99.8 204.4,98.6 202.4,97.6 200.9,96.8 200.9,96.1 203.5,95.6 204.8,94.8 204.8,93.8 192.1,93.5 190.3,96.5 184.8,96.7 
				182.6,95.3 180.2,95.5 165.8,101.5 165.8,103.3 164.6,104.3 162,104.3 161,104 159.2,105.3 159.4,107.6 161.5,107.6 164,107.5 
				167.1,109.9 168.1,115.1 169.8,118.9 167.2,123.4 163.5,128.5 163.5,135.7 166.2,137.2 168.6,139.6 170.2,138.7 178,129 
				183.8,127.1 190.6,124.5 196.7,123.6 			"/>
			<polygon class="st2" points="203.1,128.5 201.3,129.2 200,129.2 199,127.5 197.6,127.6 196.4,128.8 196.8,130.9 197.7,131.4 
				197.7,132.6 200.4,133.4 204.5,133.6 207,131.9 207.6,129.5 206.4,127.9 			"/>
			<polygon class="st3" points="213,150.1 211,151 209.4,153.6 208.8,155.3 209.5,155.8 208.8,157.3 209.5,157.3 210.3,157 
				210.9,157.5 211.7,157.6 213.8,155 214.8,152.6 215.8,150.3 214.9,150.1 			"/>
			<polygon class="st3" points="219.4,150.9 219.3,153 217.3,154.4 216.4,156.4 217.1,157.2 217.1,158.1 215,158.7 214.9,159.7 
				217.7,159.1 221.2,158.6 224,157.8 225.2,156.1 225.3,154.8 223.4,154.6 222.3,152.5 221.4,150.2 220.2,148.2 220,147 
				221.5,146.2 220.9,145 219.5,144.4 220,143.7 220,143 217.3,143.1 216.1,145.5 216.1,148.3 218.1,150.5 			"/>
			<polygon class="st3" points="234.5,176.5 235.9,176.5 236.2,176 236.2,174.3 235.6,172.7 234.4,174.1 234.5,175.9 			"/>
			<polygon class="st3" points="234.8,181.2 235.5,181 236,179.8 235.7,179.5 236.1,178.2 236,177.5 234.8,177.8 234.1,178.4 
				234,179.3 234.4,180.7 			"/>
			<polygon class="st3" points="242.6,185 244,186.1 245.5,185.9 245.7,184.1 244.8,183.1 243.4,183.1 240.8,183.3 241,183.8 			"/>
			<polygon class="st3" points="259.6,189.2 260.6,189.8 262.1,189 261.9,188.4 258.8,188.5 257.2,187.9 257.2,188.5 258.5,188.9 
							"/>
			<g>
				<g>
					<polygon class="st3" points="274,189.2 274.9,188 274.6,187.1 272,187.9 271,189.4 271.6,190.1 272.5,190.1 					"/>
					<polygon class="st3" points="287.7,119.1 290.8,119 290.8,118.3 288.5,117.8 288,117.1 287.2,114 283.9,114.2 283.2,117.9 
						286.8,118.5 					"/>
					<polygon class="st3" points="289.2,111.8 289.7,111.8 291.3,110.6 292.8,110.6 295.9,108.3 296,106 295.2,106 292.2,108.8 
						290.6,108.8 288.3,108.6 287.3,109.8 286.5,111.1 285.3,111.2 285.1,113.3 287.8,113.2 					"/>
					<path d="M279,215c0.3,0,0.9,0.1,1.4,0.1l-0.1-0.1C279.9,215,279.4,215,279,215z"/>
					<path class="st4" d="M273.4,196.6l-0.8-0.5l-1.6-0.2l-1.2-0.1l-2.6,0.5l-1.6,0.9h-2.4l-2.6-1.7l-1.9-1.4l-1.5-1.1l-2.7,0.6
						l-1.9,1.1l-0.1,1.6h0.6l-0.2,1.2h-1.3l-3.4-0.6l-2.2-1.2l-0.6-2.2l-0.9-0.3l-2.9-0.4l-1.9-0.7l-1.7-1.5l-0.3-1.1l1-2.5l0.2-2.1
						l-3.9-0.3h-3.4l-2.4,0.6l-2.4,0.5l-4,0.9l-4.9,1.8l-2,0.1l-1.7-0.9h-1.1l-1.8,2.8l-1.1,1.4l-2.9,2l-0.6,1.5l-0.5,2.9l-3.5,4.2
						H201l-2.3,2.6l-4.3,8.6l-0.4,3.6l0.1,4.6l-1.2,4.3v4.2l1.8,3.9l5.3,6.5l7.3,7.8l3.2,0.6l8.4-2.6l6.7-1.8l3-0.4l2.9,4.1h2.7
						l2.5,0.3l-0.2,2.2l-1.1,3l-0.8,3.5l4.5,6.8l2.5,5.2l1.4,8.6l-3.2,6.1l-0.1,7.1l3.4,7.6l0.6,3.3l1,6.7l4.1,7.4l0.4,4.5l2.5,1.8
						l0.5,1l1.2,0.2l2-1.7l4.3-1.1l3.3-0.4l3.3-2.6l4.2-4.8l3-5.7v-1.4l4-2.6l0.1-4.4l-0.9-4.2l3.3-2.7l3.9-3.2l3.6-3.9l-0.2-3.3
						l-1.9-11.9l0.3-6.2l4.1-5.1l5.4-5.5l4.5-6l5.2-12.7l-0.2-1.4l-2.9,0.4l-5.5,1.8l-3.4,0.9l-1.5-0.2l0.1-3.7l-2.4-2.6l-2.6-2.6
						l-1-0.6l-0.9-3.9l-3.7-3.8l-0.1-3.1l-0.3-0.6c-0.5,0-1.1-0.1-1.4-0.1c0.4,0,0.9,0,1.3,0l-2.4-3.8l-3.3-6.4l-1-2.8l-0.4-1.7
						l1.8,0.1l0.1,0.5l0.5,0.2l0.1-0.1c-0.6-1.7-1.2-3.5-1.7-5.4L273.4,196.6z"/>
					<path class="st3" d="M334.1,165.6c-0.1-0.4-0.2-0.8-0.3-1.2c-4.7-15.3-12.1-29.4-21.7-41.8c-1-1.2-1.9-2.5-2.9-3.7
						c-0.1-0.2-0.3-0.3-0.4-0.5c-1-1.2-2-2.4-3-3.5c-0.2-0.3-0.5-0.5-0.7-0.8l-1.9,0.1l-0.4,0.8l-2.6,2.6l0.1,1.7l1.1,0.3l1.4,1.9
						v1.1l-1.8,0.2l-2.3-1.4l-4.4,0.3l-4.4,1.2l-2.8,0.9l-3.5,1.4l-3,0.8l-0.8-0.1l-0.1-1.8l-1.9-1.2h-1.1v1.6l1.1,0.6v1.2l0.9,0.8
						v1.7l-1.4-0.1l-0.4-0.6l-1.6,1.4l-1,0.3l-3,3.1h-1.6l-2.4-2.5l-1.6-0.9l-1.3-1.1l0.1-1.8l2,0.6l1.9,0.7l2.1,1.1l1.9-0.1
						l0.7-0.9v-1.5l-0.7-0.3l-0.8-1.2h-1.1l-3.9-2.7l-4.6-1.8l-1.7-0.8l-2.8-1.3h-3l-6.8,4.6l-4,3.9l-3.1,3.1l-4.2,4l-2.1,2
						l-2.4,1.7v5l1.1,1.4l1.9-0.1l0.6-0.9l0.9-0.2l1.6-0.9v1.3l0.6-0.2v1.9l1.1,0.9l0.5,1.8l0.4,1.8l1.6-0.1l0.5-1l1.1-0.6l0.9-1
						v-1.1l1-2.4l1.4-2.4v-1.7l-0.9-2.2l1.4-3l1.8-1.1l0.1-1.2l1.5-1.8l1.6-1.7l1.2,0.5h0.9v2.2l-1.5,1.8l-1.9,1.8v1.4l2.3,4.5
						l2.1,0.1l1.6-0.8l1.3-0.4l1.6-0.1l0.6,0.2l0.7,1.1l-1.9,1h-1.6l-3.2,0.4l0.5,2v1.1l-1.3,0.5l-0.4-0.4l-1.2-0.1l-0.8,1.1l-1,2.4
						l-0.6,2.3l-0.9,0.2l-1.3-0.4l-2.1,0.1L244,151l-2,0.7l-1.7,0.1l-2.4-0.3l-1.2-0.5v-1.7l0.9-1v-1.9l-0.4-1.6l-1.3,0.3l-1.4,1
						l0.2,1.6l0.2,3l-0.5,2l-2.4,0.7l-1.8,0.5l0.1,2.7l-0.6,0.1l-0.3-1.2l-1,0.6l-0.9,1.3l-1.3,0.6l-3.3,3.5h-1.7l-0.8-1.1l-1.4,0.1
						l0.6,0.8l-0.4,1.4h-3.2l0.2,1.2l0.6,0.5l1.8,0.9l1.9,1.2l0.2,3l-0.9,1.5l0.4,1.3l-1.8,1l-1.5-0.3l-3-0.7h-3.1l-2,0.6l-0.3,2
						v9.7l1.1,0.8l1.2,0.3l1.8,0.9l2-0.4l1.4-0.4l1.6,0.7l1.2,0.1l2-3.3l1.8-3.8l4.5-3.8l0.4-1.8l2.2-1l0.9,1l1.7-0.3l1.9-2.1
						l1.2-0.5l1.2,1l0.6,1.4l1.7,2.7l1.2,0.7l1.8,0.2l1.5,1.1l1.4,1.5l1.1,1.4l0.2,2.5h0.8l0.4-0.7l0.3-3.1h0.6l0.8,0.8h0.6
						l-0.6-1.3l-1.1-1.1l-2-1.3v-1.2l-1.7-0.6l-1.9-1l-0.3-1l-1-1.8l-0.9-0.9l0.3-1.4h1l0.5,0.9l1,1.1l1.7,0.7l2.7,2.6l1.9,1.2
						l1.5,2l1.1,2.6l1,1.5l1.5,0.8l-1,0.3v2.5l1.3,1.2l2-0.4v-3.3v-1l0.3-2.1l0.4-1.3l2.4-0.5l1.1,0.8h1.2l2-1.8l-0.7-1.3v-2.4
						l1.2-2.3l1.1-3.3l2.2-1l1.1-0.4l0.4,0.7l0.8,2.5l1.2,1.2h1.2l1.7-1.1v-1.1l-1.1-1.1l3.7-1.8l0.8-0.4l1.1,0.3v0.8l-0.9,0.5
						l-1.2,1.2l-0.3,1.4l0.8,0.9l1.8,1.1l1,0.9l1.3,1.1h1.1l1,0.9l-0.4,0.9l0.1,1.8l-2.8,0.1l-1.7-0.3l-1.5-0.3l-2.1-0.4l-1.4-0.9
						h-2.3l-1.1,1l-1.1,0.7l-0.9,0.8l-2,0.4h-1.2l-0.8,0.5l-1,1h-1.6l0.8,2.9l0.8,2.9l1.2,1.2l3-0.1l2.8-0.4l2.5,0.1l3.4-0.3v0.8
						l-0.6,0.4v2.1v1.5L275,193l-0.6,1.9l-0.4,0.7c0.5,1.9,1.1,3.7,1.7,5.4l0.8-0.9l1.9,4.8l6.7,10.5l4.5,6.1l0.8,5.6l0.8,1.6l1.9,3
						l1.8-0.4l6.2-1.4l2.2-1.5l2.3-2.3l3.2-2.1l1.8-1.1l2.5-2.3l2.4-3.1l1.7-5.1l-0.6-1l-1-0.5l-1.8-0.3L312,210l-0.3-1.4l0.1-2.2
						H310l-1.1,1.8l-1,1.3l-2.4-0.3l-1.2-0.3v-2.4l-0.8-0.8l-1.3,0.7l-0.9-0.3l-0.3-1.3l-1-0.4l-1.1-2l-2.1-1.8l-0.3-0.9l1.1-1.2
						l1.9-0.2l1.7,1.8l3.1,2.9l1.3,1.3h2.8l1-1l1.9-0.3l1.3,1v1.8l2.3,0.9l1.9,0.6l10.6,0.1l2,1.9l0.9,1.5l0.9,1.6l2.6,2.7l1.6,0.9
						l1-0.4l0.3-2.5h1.5l0.4,5.5l0,0.1c0.6-5.1,0.9-10.2,0.9-15.5C339.6,190.2,337.7,177.6,334.1,165.6z"/>
				</g>
				<path class="st4" d="M302.1,279.3l-0.7,0.2l-3.3,3.6l-1.3,2.1l-1.5,1.1l-2.6,1.9l-1,3.6l0.6,0.3l-0.1,2.4l-2.1,4.7l0.2,3
					l1.4,2.9c2.2-1.9,4.4-3.8,6.5-5.8l0.7-2.7l3.3-9.1l-0.1-5.5L302.1,279.3z"/>
			</g>
		</g>
		<path d="M207.8,345.2c-75.3,0-136.5-61.2-136.5-136.5c0-75.3,61.2-136.5,136.5-136.5s136.5,61.2,136.5,136.5
			C344.3,284,283.1,345.2,207.8,345.2z M207.8,81.1c-70.4,0-127.6,57.2-127.6,127.6c0,70.4,57.2,127.6,127.6,127.6
			c70.4,0,127.6-57.2,127.6-127.6C335.4,138.3,278.2,81.1,207.8,81.1z"/>
	</g>
</g>
</svg>
